<?xml version="1.0" ?><svg height="512" id="Layer_1" version="1.1" viewBox="0 0 512 512" width="512" xml:space="preserve" xmlns="http://www.w3.org/2000/svg" xmlns:cc="http://creativecommons.org/ns#" xmlns:dc="http://purl.org/dc/elements/1.1/" xmlns:inkscape="http://www.inkscape.org/namespaces/inkscape" xmlns:rdf="http://www.w3.org/1999/02/22-rdf-syntax-ns#" xmlns:sodipodi="http://sodipodi.sourceforge.net/DTD/sodipodi-0.dtd" xmlns:svg="http://www.w3.org/2000/svg"><defs id="defs12"/><g id="g5976"><rect height="512" id="rect2987" style="fill:#cf5c9f;fill-opacity:1;fill-rule:nonzero;stroke:none" width="512" x="0" y="5.6843419e-014"/><g id="g13" transform="matrix(1.3953229,0,0,1.3971603,-97.340409,-86.584404)"><path d="m 253.231,102.053 c -79.035,0 -143.335,64.219 -143.335,143.149 0,78.927 64.301,143.146 143.335,143.146 79.036,0 143.337,-64.219 143.337,-143.146 0,-78.931 -64.3,-143.149 -143.337,-143.149 z m 94.771,66.016 c 17.054,20.806 27.374,47.303 27.646,76.166 -4.035,-0.852 -44.515,-9.053 -85.253,-3.938 -0.858,-2.091 -1.735,-4.197 -2.636,-6.309 -2.541,-5.961 -5.272,-11.888 -8.125,-17.708 45.272,-18.457 65.788,-44.726 68.368,-48.211 z m -94.771,-44.947 c 31.11,0 59.54,11.65 81.159,30.807 -2.201,3.132 -20.632,27.871 -64.169,44.167 -20.061,-36.815 -42.296,-67.055 -45.68,-71.579 9.207,-2.214 18.814,-3.395 28.69,-3.395 z m -52.05,11.615 c 3.228,4.418 25.104,34.697 45.391,70.714 -57.269,15.185 -107.708,14.966 -113.185,14.894 7.936,-37.941 33.542,-69.475 67.794,-85.608 z M 130.8,245.39 c 0,-1.253 0.025,-2.499 0.064,-3.739 5.357,0.11 64.684,0.872 125.826,-17.4 3.504,6.85 6.851,13.805 9.923,20.75 -1.617,0.458 -3.226,0.942 -4.822,1.452 -63.146,20.385 -96.744,75.945 -99.517,80.684 C 142.72,305.463 130.8,276.791 130.8,245.39 z m 122.431,122.269 c -28.304,0 -54.39,-9.649 -75.149,-25.812 2.204,-4.499 26.992,-52.328 96.048,-76.359 0.268,-0.09 0.539,-0.18 0.805,-0.27 17.191,44.607 24.301,81.992 26.119,92.72 -14.7,6.255 -30.866,9.721 -47.823,9.721 z m 68.411,-20.912 c -1.255,-7.437 -7.777,-43.234 -23.787,-87.177 38.365,-6.133 72.072,3.904 76.257,5.229 -5.455,34.014 -25.007,63.396 -52.47,81.948 z" id="path15" style="fill:#ffffff;fill-rule:evenodd"/><path d="m 253.231,102.053 c -79.035,0 -143.335,64.219 -143.335,143.149 0,78.927 64.301,143.146 143.335,143.146 79.036,0 143.337,-64.219 143.337,-143.146 0,-78.931 -64.3,-143.149 -143.337,-143.149 z m 94.771,66.016 c 17.054,20.806 27.374,47.303 27.646,76.166 -4.035,-0.852 -44.515,-9.053 -85.253,-3.938 -0.858,-2.091 -1.735,-4.197 -2.636,-6.309 -2.541,-5.961 -5.272,-11.888 -8.125,-17.708 45.272,-18.457 65.788,-44.726 68.368,-48.211 z m -94.771,-44.947 c 31.11,0 59.54,11.65 81.159,30.807 -2.201,3.132 -20.632,27.871 -64.169,44.167 -20.061,-36.815 -42.296,-67.055 -45.68,-71.579 9.207,-2.214 18.814,-3.395 28.69,-3.395 z m -52.05,11.615 c 3.228,4.418 25.104,34.697 45.391,70.714 -57.269,15.185 -107.708,14.966 -113.185,14.894 7.936,-37.941 33.542,-69.475 67.794,-85.608 z M 130.8,245.39 c 0,-1.253 0.025,-2.499 0.064,-3.739 5.357,0.11 64.684,0.872 125.826,-17.4 3.504,6.85 6.851,13.805 9.923,20.75 -1.617,0.458 -3.226,0.942 -4.822,1.452 -63.146,20.385 -96.744,75.945 -99.517,80.684 C 142.72,305.463 130.8,276.791 130.8,245.39 z m 122.431,122.269 c -28.304,0 -54.39,-9.649 -75.149,-25.812 2.204,-4.499 26.992,-52.328 96.048,-76.359 0.268,-0.09 0.539,-0.18 0.805,-0.27 17.191,44.607 24.301,81.992 26.119,92.72 -14.7,6.255 -30.866,9.721 -47.823,9.721 z m 68.411,-20.912 c -1.255,-7.437 -7.777,-43.234 -23.787,-87.177 38.365,-6.133 72.072,3.904 76.257,5.229 -5.455,34.014 -25.007,63.396 -52.47,81.948 z" id="path17-28" style="fill:#ffffff;fill-rule:evenodd"/></g></g></svg>