<?xml version="1.0" ?><svg height="512" preserveAspectRatio="xMidYMid" viewBox="0 0 512 512" width="512" xmlns="http://www.w3.org/2000/svg" xmlns:xlink="http://www.w3.org/1999/xlink"><defs><style>
      .cls-1 {
        fill: #fff;
      }

      .cls-2 {
        fill: #0177b5;
      }

      .cls-2, .cls-3 {
        fill-rule: evenodd;
      }

      .cls-3 {
        fill: #000;
        opacity: 0.1;
      }
    </style></defs><circle class="cls-1" cx="256" cy="256" r="256"/><path class="cls-2" d="M256.000,512.000 C114.615,512.000 0.000,397.385 0.000,256.000 C0.000,114.615 114.615,0.000 256.000,0.000 C397.385,0.000 512.000,114.615 512.000,256.000 C512.000,397.385 397.385,512.000 256.000,512.000 ZM135.223,390.992 L195.084,390.992 L195.084,202.673 L135.223,202.673 L135.223,390.992 ZM165.146,122.000 C147.945,122.000 134.000,135.977 134.000,153.218 C134.000,170.460 147.945,184.437 165.146,184.437 C182.347,184.437 196.292,170.460 196.292,153.218 C196.292,135.977 182.347,122.000 165.146,122.000 ZM411.822,248.201 C411.427,241.868 393.345,198.594 351.961,198.534 C311.750,198.477 287.972,223.368 287.972,223.368 L287.972,204.743 L233.128,204.743 L232.239,388.923 L292.100,388.923 C292.100,388.923 292.374,276.608 292.100,273.034 C291.705,267.889 301.498,251.755 323.063,252.340 C344.627,252.924 354.025,267.403 354.025,270.965 C354.025,274.527 354.025,390.992 354.025,390.992 L411.822,390.992 C411.822,390.992 412.217,254.534 411.822,248.201 Z"/><path class="cls-3" d="M436.999,75.012 C536.959,174.972 536.959,337.039 436.999,436.999 C337.039,536.959 174.972,536.959 75.012,436.999 "/></svg>